<svg xmlns="http://www.w3.org/2000/svg" width="1189" height="851" viewBox="0 0 1189 851"><rect width="1189" height="851" fill="#ffffff"/>
      <defs id="svg-defs"><marker id="mk000000" viewBox="0 0 10 10" refX="10" refY="5" markerWidth="8" markerHeight="8" orient="auto"><path d="M0,1 L10,5 L0,9 Z" fill="#000000"/></marker><marker id="mkc53030" viewBox="0 0 10 10" refX="10" refY="5" markerWidth="8" markerHeight="8" orient="auto"><path d="M0,1 L10,5 L0,9 Z" fill="#c53030"/></marker><marker id="mkc05621" viewBox="0 0 10 10" refX="10" refY="5" markerWidth="8" markerHeight="8" orient="auto"><path d="M0,1 L10,5 L0,9 Z" fill="#c05621"/></marker><marker id="mkb7791f" viewBox="0 0 10 10" refX="10" refY="5" markerWidth="8" markerHeight="8" orient="auto"><path d="M0,1 L10,5 L0,9 Z" fill="#b7791f"/></marker><marker id="mk276749" viewBox="0 0 10 10" refX="10" refY="5" markerWidth="8" markerHeight="8" orient="auto"><path d="M0,1 L10,5 L0,9 Z" fill="#276749"/></marker><marker id="mk2b4c7e" viewBox="0 0 10 10" refX="10" refY="5" markerWidth="8" markerHeight="8" orient="auto"><path d="M0,1 L10,5 L0,9 Z" fill="#2b4c7e"/></marker><marker id="mk553c9a" viewBox="0 0 10 10" refX="10" refY="5" markerWidth="8" markerHeight="8" orient="auto"><path d="M0,1 L10,5 L0,9 Z" fill="#553c9a"/></marker><marker id="mk97266d" viewBox="0 0 10 10" refX="10" refY="5" markerWidth="8" markerHeight="8" orient="auto"><path d="M0,1 L10,5 L0,9 Z" fill="#97266d"/></marker><marker id="mk234e52" viewBox="0 0 10 10" refX="10" refY="5" markerWidth="8" markerHeight="8" orient="auto"><path d="M0,1 L10,5 L0,9 Z" fill="#234e52"/></marker><marker id="mk1a202c" viewBox="0 0 10 10" refX="10" refY="5" markerWidth="8" markerHeight="8" orient="auto"><path d="M0,1 L10,5 L0,9 Z" fill="#1a202c"/></marker><marker id="mk3b82f6" viewBox="0 0 10 10" refX="10" refY="5" markerWidth="8" markerHeight="8" orient="auto"><path d="M0,1 L10,5 L0,9 Z" fill="#3b82f6"/></marker><marker id="mkf59e0b" viewBox="0 0 10 10" refX="10" refY="5" markerWidth="8" markerHeight="8" orient="auto"><path d="M0,1 L10,5 L0,9 Z" fill="#f59e0b"/></marker><marker id="mk8b5cf6" viewBox="0 0 10 10" refX="10" refY="5" markerWidth="8" markerHeight="8" orient="auto"><path d="M0,1 L10,5 L0,9 Z" fill="#8b5cf6"/></marker><marker id="mk7c3aed" viewBox="0 0 10 10" refX="10" refY="5" markerWidth="8" markerHeight="8" orient="auto"><path d="M0,1 L10,5 L0,9 Z" fill="#7c3aed"/></marker><marker id="mk0f172a" viewBox="0 0 10 10" refX="10" refY="5" markerWidth="8" markerHeight="8" orient="auto"><path d="M0,1 L10,5 L0,9 Z" fill="#0f172a"/></marker><marker id="mk64748b" viewBox="0 0 10 10" refX="10" refY="5" markerWidth="8" markerHeight="8" orient="auto"><path d="M0,1 L10,5 L0,9 Z" fill="#64748b"/></marker></defs>
      
      <g id="wardley-layer" transform="translate(121.72222222222223,-9.535014005602193) scale(0.7945845004668534)"/>
      <g id="lines-layer" transform="translate(121.72222222222223,-9.535014005602193) scale(0.7945845004668534)"/>
      <g id="edges-layer" transform="translate(121.72222222222223,-9.535014005602193) scale(0.7945845004668534)"><g id="edge-e1" style="cursor: grab; opacity: 1;"><path d="M137.68,108 Q121.4,145 133.72,173" fill="none" stroke="#0f172a" stroke-width="1.8" marker-end="url(#mk0f172a)" pointer-events="none"/><text text-anchor="middle" pointer-events="none" transform="rotate(-86.5,111.4,148.2)"><tspan x="111.3800767323394" y="148.1531227066065" font-size="11" font-style="italic" fill="#0f172a">⬇ Export my data</tspan></text></g><g id="edge-e2" style="cursor: grab; opacity: 1;"><path d="M133.72,247 Q120.3,277.5 137.68,317" fill="none" stroke="#0f172a" stroke-width="1.8" marker-end="url(#mk0f172a)" pointer-events="none"/></g><g id="edge-e3" style="cursor: grab; opacity: 1;"><path d="M137.68,373 Q120.3,412.5 133.72,443" fill="none" stroke="#0f172a" stroke-width="1.8" marker-end="url(#mk0f172a)" pointer-events="none"/><text text-anchor="middle" pointer-events="none" transform="rotate(-86.8,110.7,415.3)"><tspan x="110.72251523686124" y="415.29861567754057" font-size="11" font-style="italic" fill="#0f172a">human publishes</tspan></text></g><g id="edge-e4" style="cursor: grab; opacity: 1;"><path d="M234.09090909090912,517 Q310,550.4 405,508.59999999999997" fill="none" stroke="#0f172a" stroke-width="1.8" marker-end="url(#mk0f172a)" pointer-events="none"/><text text-anchor="middle" pointer-events="none" transform="rotate(-2.8,310.3,549.0)"><tspan x="310.3435934339186" y="549.0465691022023" font-size="11" font-style="italic" fill="#0f172a">you fork it</tspan></text></g><g id="edge-e5" style="cursor: grab; opacity: 1;"><path d="M535,508.59999999999997 Q615,543.8 675.9090909090909,517" fill="none" stroke="#0f172a" stroke-width="1.8" marker-end="url(#mk0f172a)" pointer-events="none"/><text text-anchor="middle" pointer-events="none" transform="rotate(3.4,615.5,545.5)"><tspan x="615.5243629221534" y="545.5029310138505" font-size="11" font-style="italic" fill="#0f172a">copy + lineage</tspan></text></g><g id="edge-e6" style="cursor: grab; opacity: 1;"><path d="M743.72,517 Q729.2,550 743.72,583" fill="none" stroke="#0f172a" stroke-width="1.8" marker-end="url(#mk0f172a)" pointer-events="none"/><text text-anchor="middle" pointer-events="none" transform="rotate(90.0,718.5,550.0)"><tspan x="718.46" y="550" font-size="11" font-style="italic" fill="#0f172a">appears in</tspan></text></g><g id="edge-e7" style="cursor: grab; opacity: 1;"><path d="M675.9090909090909,583 Q615,556.2 554.0909090909091,583" fill="none" stroke="#0f172a" stroke-width="1.8" marker-end="url(#mk0f172a)" pointer-events="none"/><text text-anchor="middle" pointer-events="none"><tspan x="615" y="551.6" font-size="11" font-style="italic" fill="#0f172a">scanned by</tspan></text></g><g id="edge-e8" style="cursor: grab; opacity: 1;"><path d="M453.71999999999997,657 Q439.2,690 457.68,732" fill="none" stroke="#0f172a" stroke-width="1.8" marker-end="url(#mk0f172a)" pointer-events="none"/></g><g id="edge-e9" style="cursor: grab; opacity: 1;"><path d="M184.04843304843305,657 Q279.2,760.4 370,760.20964360587" fill="none" stroke="#64748b" stroke-width="1.5" stroke-dasharray="8 5" marker-end="url(#mk64748b)" pointer-events="none"/><text text-anchor="middle" pointer-events="none" transform="rotate(29.0,278.9,752.5)"><tspan x="278.8675761375703" y="752.486550255052" font-size="11" font-style="italic" fill="#64748b">fallback — still works</tspan></text></g><g id="edge-e10" style="cursor: grab; opacity: 1;"><path d="M772.0297435897436,517 Q823.4,675 928.7741176470588,723" fill="none" stroke="#64748b" stroke-width="1.5" stroke-dasharray="8 5" marker-end="url(#mk64748b)" pointer-events="none"/><text text-anchor="middle" pointer-events="none" transform="rotate(52.7,829.0,663.7)"><tspan x="828.9683908485661" y="663.6577926223383" font-size="11" font-style="italic" fill="#64748b">page keeps origin</tspan></text></g><g id="edge-e11" style="cursor: grab; opacity: 1;"><path d="M925.9090909090909,723 Q740,641.2 533.6363636363636,732" fill="none" stroke="#64748b" stroke-width="1.5" stroke-dasharray="8 5" marker-end="url(#mk64748b)" pointer-events="none"/><text text-anchor="middle" pointer-events="none" transform="rotate(-1.3,737.0,666.5)"><tspan x="737.0046910987769" y="666.4750821327206" font-size="11" font-style="italic" fill="#64748b">re-fetch on load</tspan></text></g><g id="edge-e12" style="cursor: grab; opacity: 1;"><path d="M457.68,788 Q443.6,820 453.72,843" fill="none" stroke="#0f172a" stroke-width="1.8" marker-end="url(#mk0f172a)" pointer-events="none"/></g><g id="edge-e13" style="cursor: grab; opacity: 1;"><path d="M453.71999999999997,917 Q441.4,945 455.47999999999996,977" fill="none" stroke="#0f172a" stroke-width="1.8" marker-end="url(#mk0f172a)" pointer-events="none"/></g></g>
      <g id="nodes-layer" transform="translate(121.72222222222223,-9.535014005602193) scale(0.7945845004668534)"><g id="node-map_steward" transform="translate(150,80)" style="cursor: move; opacity: 1;"><title>📌 Any steward running rcn_map.html with their own NDCs, pins and boundaries.</title><rect x="-95" y="-28" width="190" height="56" rx="10" fill="#ffffff" stroke="#2563eb" stroke-width="2"/><text text-anchor="middle" font-size="13" font-weight="500" fill="#0f172a" pointer-events="none"><tspan x="0" y="0.0">Steward's RCN Map</tspan></text><circle cx="91" cy="-24" r="4" fill="#f59e0b" stroke="#fff" stroke-width="1" pointer-events="none"/></g><g id="node-bundle" transform="translate(150,210)" style="cursor: move; opacity: 1;"><title>📌 Exactly today's ⬇ Export my data output — same keys renderFederatedRegions() already reads.</title><rect x="-105" y="-37" width="210" height="74" rx="10" fill="#ffffff" stroke="#2563eb" stroke-width="2"/><text text-anchor="middle" font-size="12" font-weight="500" fill="#0f172a" pointer-events="none"><tspan x="0" y="-8.0">Region bundle ndcs · locations</tspan><tspan x="0" dy="16">· polygons · corrections</tspan></text><circle cx="101" cy="-33" r="4" fill="#f59e0b" stroke="#fff" stroke-width="1" pointer-events="none"/></g><g id="node-publish" transform="translate(150,345)" style="cursor: move; opacity: 1;"><title>📌 Already built (2026-07-25). Phase 2 adds a 'copy as rcnregion item' button beside the manifest download.</title><rect x="-95" y="-28" width="190" height="56" rx="10" fill="#ffffff" stroke="#2563eb" stroke-width="2"/><text text-anchor="middle" font-size="13" font-weight="500" fill="#0f172a" pointer-events="none"><tspan x="0" y="0.0">Publish regions panel</tspan></text><circle cx="91" cy="-24" r="4" fill="#f59e0b" stroke="#fff" stroke-width="1" pointer-events="none"/></g><g id="node-region_page" transform="translate(150,480)" style="cursor: move; opacity: 1;"><title>📌 Phase 1: wiki-plugin-rcnregion. Publishing stays the human's action.</title><rect x="-105" y="-37" width="210" height="74" rx="10" fill="#ffffff" stroke="#2563eb" stroke-width="2"/><text text-anchor="middle" font-size="12" font-weight="500" fill="#0f172a" pointer-events="none"><tspan x="0" y="-8.0">Region page on steward's wiki</tspan><tspan x="0" dy="16">rcnregion item</tspan></text><circle cx="101" cy="-33" r="4" fill="#f59e0b" stroke="#fff" stroke-width="1" pointer-events="none"/></g><g id="node-fork" transform="translate(470,480)" style="cursor: move; opacity: 1;"><title>📌 The whole idea: one FedWiki verb replaces email + upload + edit-the-roster. A fork IS an add-region.</title><rect x="-65" y="-33" width="130" height="66" rx="10" fill="#fef3c7" stroke="#b8860b" stroke-width="3"/><text text-anchor="middle" font-size="16" font-weight="500" fill="#0f172a" pointer-events="none"><tspan x="0" y="0.0">FORK</tspan></text><circle cx="61" cy="-29" r="4" fill="#f59e0b" stroke="#fff" stroke-width="1" pointer-events="none"/></g><g id="node-your_copy" transform="translate(760,480)" style="cursor: move; opacity: 1;"><title>📌 Provenance for free: who published it, when, and every change since.</title><rect x="-105" y="-37" width="210" height="74" rx="10" fill="#ffffff" stroke="#16a34a" stroke-width="2"/><text text-anchor="middle" font-size="12" font-weight="500" fill="#0f172a" pointer-events="none"><tspan x="0" y="-8.0">Your forked copy carries</tspan><tspan x="0" dy="16">lineage in the journal</tspan></text><circle cx="101" cy="-33" r="4" fill="#f59e0b" stroke="#fff" stroke-width="1" pointer-events="none"/></g><g id="node-neighborhood" transform="translate(760,620)" style="cursor: move; opacity: 1;"><title>📌 Open decision §8: live neighborhood vs. a named rcn-regions roster page. Leaning roster, for predictability.</title><rect x="-105" y="-37" width="210" height="74" rx="10" fill="#ffffff" stroke="#16a34a" stroke-width="2"/><text text-anchor="middle" font-size="12" font-weight="500" fill="#0f172a" pointer-events="none"><tspan x="0" y="-8.0">Your neighborhood (or a</tspan><tspan x="0" dy="16">named roster page)</tspan></text><circle cx="101" cy="-33" r="4" fill="#f59e0b" stroke="#fff" stroke-width="1" pointer-events="none"/></g><g id="node-origin" transform="translate(1010,760)" style="cursor: move; opacity: 1;"><title>📌 §3 snapshot-vs-live. Default is the fork (offline, provenanced). Opt a region into 'follow' and the map re-fetches origin on load.</title><rect x="-95" y="-37" width="190" height="74" rx="10" fill="#ffffff" stroke="#16a34a" stroke-width="2" stroke-dasharray="8 5"/><text text-anchor="middle" font-size="12" font-weight="500" fill="#0f172a" pointer-events="none"><tspan x="0" y="-8.0">origin URL "follow origin"</tspan><tspan x="0" dy="16">(opt-in)</tspan></text><circle cx="91" cy="-33" r="4" fill="#f59e0b" stroke="#fff" stroke-width="1" pointer-events="none"/></g><g id="node-discover" transform="translate(470,620)" style="cursor: move; opacity: 1;"><title>📌 Scans the chosen source, finds pages carrying an rcnregion item, fetches each. Graceful skip if unreachable.</title><rect x="-110" y="-37" width="220" height="74" rx="10" fill="#ffffff" stroke="#7c3aed" stroke-width="2"/><text text-anchor="middle" font-size="12" font-weight="500" fill="#0f172a" pointer-events="none"><tspan x="0" y="-8.0">discoverRegionsFromWiki()</tspan><tspan x="0" dy="16">NEW — Phase 3</tspan></text><circle cx="106" cy="-33" r="4" fill="#f59e0b" stroke="#fff" stroke-width="1" pointer-events="none"/></g><g id="node-manifest" transform="translate(150,620)" style="cursor: move; opacity: 1;"><title>📌 Today's path. Stays the default and the zero-FedWiki fallback — no flag-day cutover.</title><rect x="-100" y="-37" width="200" height="74" rx="10" fill="#f8fafc" stroke="#94a3b8" stroke-width="2"/><text text-anchor="middle" font-size="12" font-weight="500" fill="#0f172a" pointer-events="none"><tspan x="0" y="-8.0">loadRegions() regions.json</tspan><tspan x="0" dy="16">manifest</tspan></text><circle cx="96" cy="-33" r="4" fill="#f59e0b" stroke="#fff" stroke-width="1" pointer-events="none"/></g><g id="node-federated" transform="translate(470,760)" style="cursor: move; opacity: 1;"><title>📌 Both discovery paths feed the same array. Dedupe by region + origin.</title><rect x="-100" y="-28" width="200" height="56" rx="10" fill="#ffffff" stroke="#7c3aed" stroke-width="2"/><text text-anchor="middle" font-size="13" font-weight="500" fill="#0f172a" pointer-events="none"><tspan x="0" y="0.0">federatedRegions[]</tspan></text><circle cx="96" cy="-24" r="4" fill="#f59e0b" stroke="#fff" stroke-width="1" pointer-events="none"/></g><g id="node-render" transform="translate(470,880)" style="cursor: move; opacity: 1;"><title>📌 UNCHANGED. Only how regions are FOUND changes, never how they draw.</title><rect x="-110" y="-37" width="220" height="74" rx="10" fill="#ffffff" stroke="#7c3aed" stroke-width="2"/><text text-anchor="middle" font-size="12" font-weight="500" fill="#0f172a" pointer-events="none"><tspan x="0" y="-8.0">renderFederatedRegions()</tspan><tspan x="0" dy="16">read-only · namespaced</tspan></text><circle cx="106" cy="-33" r="4" fill="#f59e0b" stroke="#fff" stroke-width="1" pointer-events="none"/></g><g id="node-your_map" transform="translate(470,1010)" style="cursor: move; opacity: 1;"><title>📌 Federated regions appear as read-only namespaced overlay layers, exactly as today.</title><rect x="-95" y="-33" width="190" height="66" rx="10" fill="#ffffff" stroke="#16a34a" stroke-width="2"/><text text-anchor="middle" font-size="13" font-weight="500" fill="#0f172a" pointer-events="none"><tspan x="0" y="-8.5">Your RCN Map region</tspan><tspan x="0" dy="17">overlay</tspan></text><circle cx="91" cy="-29" r="4" fill="#f59e0b" stroke="#fff" stroke-width="1" pointer-events="none"/></g></g>
      <g id="triples-layer" transform="translate(121.72222222222223,-9.535014005602193) scale(0.7945845004668534)"/>
      <g id="drag-layer"/>
      <g id="legend-layer"><g transform="translate(982.5,605.0)"><rect x="0" y="0" width="186.5" height="226.0" rx="8" fill="rgba(255,255,255,0.92)" stroke="rgba(0,0,0,0.14)" stroke-width="1"/><text x="12" y="23" font-family="system-ui,sans-serif" font-size="10" font-weight="700" letter-spacing="0.06em" fill="#475569">LEGEND</text><g transform="translate(12,0)"><rect x="9" y="36" width="18" height="18" rx="2" fill="#ffffff" stroke="#2563eb" stroke-width="2"/></g><text x="58" y="45" font-family="system-ui,sans-serif" font-size="11" fill="#0f172a" dominant-baseline="central">Steward publishes</text><g transform="translate(12,0)"><rect x="9" y="62" width="18" height="18" rx="2" fill="#fef3c7" stroke="#b8860b" stroke-width="3"/></g><text x="58" y="71" font-family="system-ui,sans-serif" font-size="11" fill="#0f172a" dominant-baseline="central">The fork gesture</text><g transform="translate(12,0)"><rect x="9" y="88" width="18" height="18" rx="2" fill="#ffffff" stroke="#16a34a" stroke-width="2"/></g><text x="58" y="97" font-family="system-ui,sans-serif" font-size="11" fill="#0f172a" dominant-baseline="central">Your wiki</text><g transform="translate(12,0)"><rect x="9" y="114" width="18" height="18" rx="2" fill="#ffffff" stroke="#7c3aed" stroke-width="2"/></g><text x="58" y="123" font-family="system-ui,sans-serif" font-size="11" fill="#0f172a" dominant-baseline="central">Map loader</text><g transform="translate(12,0)"><rect x="9" y="140" width="18" height="18" rx="2" fill="#f8fafc" stroke="#94a3b8" stroke-width="2"/></g><text x="58" y="149" font-family="system-ui,sans-serif" font-size="11" fill="#0f172a" dominant-baseline="central">Unchanged today</text><g transform="translate(12,0)"><line x1="0" y1="175" x2="36" y2="175" stroke="#0f172a" stroke-width="1.8" marker-end="url(#mk0f172a)"/></g><text x="58" y="175" font-family="system-ui,sans-serif" font-size="11" fill="#0f172a" dominant-baseline="central">flow</text><g transform="translate(12,0)"><line x1="0" y1="201" x2="36" y2="201" stroke="#64748b" stroke-width="1.5" stroke-dasharray="8 5" marker-end="url(#mk64748b)"/></g><text x="58" y="201" font-family="system-ui,sans-serif" font-size="11" fill="#0f172a" dominant-baseline="central">opt-in / fallback</text></g></g>
    </svg>