<svg xmlns="http://www.w3.org/2000/svg" width="267" height="145" viewBox="484 356 267 145" style="width:100%;height:auto;display:block;max-width:267px;margin:auto" preserveAspectRatio="xMidYMid meet"><rect width="1234" height="857" fill="#ffffff"/>
      <defs id="svg-defs"><marker id="mk000000" viewBox="0 0 10 10" refX="10" refY="5" markerWidth="8" markerHeight="8" orient="auto"><path d="M0,1 L10,5 L0,9 Z" fill="#000000"/></marker><marker id="mkc53030" viewBox="0 0 10 10" refX="10" refY="5" markerWidth="8" markerHeight="8" orient="auto"><path d="M0,1 L10,5 L0,9 Z" fill="#c53030"/></marker><marker id="mkc05621" viewBox="0 0 10 10" refX="10" refY="5" markerWidth="8" markerHeight="8" orient="auto"><path d="M0,1 L10,5 L0,9 Z" fill="#c05621"/></marker><marker id="mkb7791f" viewBox="0 0 10 10" refX="10" refY="5" markerWidth="8" markerHeight="8" orient="auto"><path d="M0,1 L10,5 L0,9 Z" fill="#b7791f"/></marker><marker id="mk276749" viewBox="0 0 10 10" refX="10" refY="5" markerWidth="8" markerHeight="8" orient="auto"><path d="M0,1 L10,5 L0,9 Z" fill="#276749"/></marker><marker id="mk2b4c7e" viewBox="0 0 10 10" refX="10" refY="5" markerWidth="8" markerHeight="8" orient="auto"><path d="M0,1 L10,5 L0,9 Z" fill="#2b4c7e"/></marker><marker id="mk553c9a" viewBox="0 0 10 10" refX="10" refY="5" markerWidth="8" markerHeight="8" orient="auto"><path d="M0,1 L10,5 L0,9 Z" fill="#553c9a"/></marker><marker id="mk97266d" viewBox="0 0 10 10" refX="10" refY="5" markerWidth="8" markerHeight="8" orient="auto"><path d="M0,1 L10,5 L0,9 Z" fill="#97266d"/></marker><marker id="mk234e52" viewBox="0 0 10 10" refX="10" refY="5" markerWidth="8" markerHeight="8" orient="auto"><path d="M0,1 L10,5 L0,9 Z" fill="#234e52"/></marker><marker id="mk1a202c" viewBox="0 0 10 10" refX="10" refY="5" markerWidth="8" markerHeight="8" orient="auto"><path d="M0,1 L10,5 L0,9 Z" fill="#1a202c"/></marker><marker id="mk3b82f6" viewBox="0 0 10 10" refX="10" refY="5" markerWidth="8" markerHeight="8" orient="auto"><path d="M0,1 L10,5 L0,9 Z" fill="#3b82f6"/></marker><marker id="mkf59e0b" viewBox="0 0 10 10" refX="10" refY="5" markerWidth="8" markerHeight="8" orient="auto"><path d="M0,1 L10,5 L0,9 Z" fill="#f59e0b"/></marker><marker id="mk8b5cf6" viewBox="0 0 10 10" refX="10" refY="5" markerWidth="8" markerHeight="8" orient="auto"><path d="M0,1 L10,5 L0,9 Z" fill="#8b5cf6"/></marker><marker id="mk7c3aed" viewBox="0 0 10 10" refX="10" refY="5" markerWidth="8" markerHeight="8" orient="auto"><path d="M0,1 L10,5 L0,9 Z" fill="#7c3aed"/></marker><marker id="mkd4549a" viewBox="0 0 10 10" refX="10" refY="5" markerWidth="8" markerHeight="8" orient="auto"><path d="M0,1 L10,5 L0,9 Z" fill="#d4549a"/></marker><marker id="mkd4a017" viewBox="0 0 10 10" refX="10" refY="5" markerWidth="8" markerHeight="8" orient="auto"><path d="M0,1 L10,5 L0,9 Z" fill="#d4a017"/></marker><marker id="mk1a7a4a" viewBox="0 0 10 10" refX="10" refY="5" markerWidth="8" markerHeight="8" orient="auto"><path d="M0,1 L10,5 L0,9 Z" fill="#1a7a4a"/></marker><marker id="mk8e5cc4" viewBox="0 0 10 10" refX="10" refY="5" markerWidth="8" markerHeight="8" orient="auto"><path d="M0,1 L10,5 L0,9 Z" fill="#8e5cc4"/></marker></defs>
      
      <g id="wardley-layer" transform="translate(-202.40252075195315,-345.57977905273435) scale(1.3)"/>
      <g id="lop-layer" transform="translate(-202.40252075195315,-345.57977905273435) scale(1.3)"/>
      <g id="vsm-layer" transform="translate(-202.40252075195315,-345.57977905273435) scale(1.3)"/>
      <g id="lines-layer" transform="translate(-202.40252075195315,-345.57977905273435) scale(1.3)"/>
      <g id="edges-layer" transform="translate(-202.40252075195315,-345.57977905273435) scale(1.3)"/>
      <g id="nodes-layer" transform="translate(-202.40252075195315,-345.57977905273435) scale(1.3)"><g id="node-n18" transform="translate(630.3096266175819,595.4459957617265)" style="cursor: move; opacity: 1;"><title>📌 400 36th St, Bellingham. National consumer co-op (1938); Bellingham store opened 1999.
lat: 48.7306
lng: -122.4722
kind: Consumer co-op / credit union
mapId: rei
_onMap: http://localhost:8765/maps/rcn_map.html?lat=48.7306&amp;lng=-122.4722&amp;zoom=16&amp;openissue=whatcom-wa--cooperatives
website: https://www.rei.com/stores/bellingham
phone: (360) 647-8955
address: 400 36th St, Bellingham WA 98225
contactChecked: Sep 2026
contactSource: store listings</title><rect x="-75" y="-28" width="150" height="56" rx="10" fill="#d8e3fb" stroke="#2563eb" stroke-width="3"/><circle cx="71" cy="-24" r="4" fill="#f59e0b" stroke="#fff" stroke-width="1"/><text text-anchor="middle" font-size="12" font-weight="500" fill="#0f172a" pointer-events="none"><tspan x="0" y="0.0">REI Bellingham</tspan></text><a class="internal" href="/rei-bellingham.html" data-page-name="rei-bellingham" title="view"><title>REI Bellingham — open its page</title><rect x="-75" y="-28" width="150" height="56" fill="transparent" style="cursor:pointer" data-page-name="rei-bellingham" title="view"/></a></g></g>
      <g id="triples-layer" transform="translate(-202.40252075195315,-345.57977905273435) scale(1.3)"/>
      <g id="drag-layer"/>
      <g id="eip-statement-layer"/>
      <g id="legend-layer"/>
      <g id="opm-symbols-chart"/>
    <text x="16" y="26" font-family="system-ui,sans-serif" font-size="15" font-weight="600" fill="#1e293b" pointer-events="none">REI Bellingham  nearest neighbours</text></svg>