<svg xmlns="http://www.w3.org/2000/svg" width="874" height="526" viewBox="43 62 874 526" style="font-family:'IBM Plex Sans',system-ui,sans-serif"><rect x="43" y="62" width="874" height="526" fill="#ffffff"/>
      <defs id="svg-defs"><marker id="mk000000" viewBox="0 0 10 10" refX="10" refY="5" markerWidth="8" markerHeight="8" orient="auto"><path d="M0,1 L10,5 L0,9 Z" fill="#000000"/></marker><marker id="mkc53030" viewBox="0 0 10 10" refX="10" refY="5" markerWidth="8" markerHeight="8" orient="auto"><path d="M0,1 L10,5 L0,9 Z" fill="#c53030"/></marker><marker id="mkc05621" viewBox="0 0 10 10" refX="10" refY="5" markerWidth="8" markerHeight="8" orient="auto"><path d="M0,1 L10,5 L0,9 Z" fill="#c05621"/></marker><marker id="mkb7791f" viewBox="0 0 10 10" refX="10" refY="5" markerWidth="8" markerHeight="8" orient="auto"><path d="M0,1 L10,5 L0,9 Z" fill="#b7791f"/></marker><marker id="mk276749" viewBox="0 0 10 10" refX="10" refY="5" markerWidth="8" markerHeight="8" orient="auto"><path d="M0,1 L10,5 L0,9 Z" fill="#276749"/></marker><marker id="mk2b4c7e" viewBox="0 0 10 10" refX="10" refY="5" markerWidth="8" markerHeight="8" orient="auto"><path d="M0,1 L10,5 L0,9 Z" fill="#2b4c7e"/></marker><marker id="mk553c9a" viewBox="0 0 10 10" refX="10" refY="5" markerWidth="8" markerHeight="8" orient="auto"><path d="M0,1 L10,5 L0,9 Z" fill="#553c9a"/></marker><marker id="mk97266d" viewBox="0 0 10 10" refX="10" refY="5" markerWidth="8" markerHeight="8" orient="auto"><path d="M0,1 L10,5 L0,9 Z" fill="#97266d"/></marker><marker id="mk234e52" viewBox="0 0 10 10" refX="10" refY="5" markerWidth="8" markerHeight="8" orient="auto"><path d="M0,1 L10,5 L0,9 Z" fill="#234e52"/></marker><marker id="mk1a202c" viewBox="0 0 10 10" refX="10" refY="5" markerWidth="8" markerHeight="8" orient="auto"><path d="M0,1 L10,5 L0,9 Z" fill="#1a202c"/></marker><marker id="mk3b82f6" viewBox="0 0 10 10" refX="10" refY="5" markerWidth="8" markerHeight="8" orient="auto"><path d="M0,1 L10,5 L0,9 Z" fill="#3b82f6"/></marker><marker id="mkf59e0b" viewBox="0 0 10 10" refX="10" refY="5" markerWidth="8" markerHeight="8" orient="auto"><path d="M0,1 L10,5 L0,9 Z" fill="#f59e0b"/></marker><marker id="mk8b5cf6" viewBox="0 0 10 10" refX="10" refY="5" markerWidth="8" markerHeight="8" orient="auto"><path d="M0,1 L10,5 L0,9 Z" fill="#8b5cf6"/></marker><marker id="mk7c3aed" viewBox="0 0 10 10" refX="10" refY="5" markerWidth="8" markerHeight="8" orient="auto"><path d="M0,1 L10,5 L0,9 Z" fill="#7c3aed"/></marker></defs>
      
      <g id="wardley-layer"/>
      <g id="lines-layer"/>
      <g id="edges-layer"><g id="edge-e8" style="cursor: pointer; opacity: 1;"><path d="M235,110 L395,110" fill="none" stroke="#000000" stroke-width="1.5" marker-end="url(#mk000000)" pointer-events="none"/><text text-anchor="middle" pointer-events="none"><tspan x="315" y="124" font-size="10" font-style="italic" fill="#000000">TAUGHT</tspan></text></g><g id="edge-e9" style="cursor: pointer; opacity: 1;"><path d="M565,110 L725,110" fill="none" stroke="#000000" stroke-width="1.5" marker-end="url(#mk000000)" pointer-events="none"/><text text-anchor="middle" pointer-events="none"><tspan x="645" y="124" font-size="10" font-style="italic" fill="#000000">TAUGHT</tspan></text></g><g id="edge-e10" style="cursor: pointer; opacity: 1;"><path d="M235,330 L395,330" fill="none" stroke="#000000" stroke-width="1.5" marker-end="url(#mk000000)" pointer-events="none"/><text text-anchor="middle" pointer-events="none"><tspan x="315" y="344" font-size="10" font-style="italic" fill="#000000">ISSUED</tspan></text></g><g id="edge-e11" style="cursor: pointer; opacity: 1;"><path d="M480,136 L480,304" fill="none" stroke="#000000" stroke-width="1.5" marker-end="url(#mk000000)" pointer-events="none"/><text text-anchor="middle" pointer-events="none" transform="rotate(90.0,466.0,220.0)"><tspan x="466" y="220" font-size="10" font-style="italic" fill="#000000">HOLDS</tspan></text></g><g id="edge-e12" style="cursor: pointer; opacity: 1;"><path d="M565,330 L725,330" fill="none" stroke="#000000" stroke-width="1.5" marker-end="url(#mk000000)" pointer-events="none"/><text text-anchor="middle" pointer-events="none"><tspan x="645" y="344" font-size="10" font-style="italic" fill="#000000">CERTIFIES</tspan></text></g><g id="edge-e13" style="cursor: pointer; opacity: 1;"><path d="M480,356 L480,514" fill="none" stroke="#000000" stroke-width="1.5" marker-end="url(#mk000000)" pointer-events="none"/><text text-anchor="middle" pointer-events="none" transform="rotate(90.0,466.0,435.0)"><tspan x="466" y="435" font-size="10" font-style="italic" fill="#000000">HAS_GATE</tspan></text></g></g>
      <g id="nodes-layer"><g id="node-n1" transform="translate(150,110)" style="cursor: move; opacity: 1;"><rect x="-85" y="-26" width="170" height="52" rx="10" fill="#bfdbfe" stroke="#000000" stroke-width="1.5"/><text text-anchor="middle" font-size="12" font-weight="500" fill="#000000" pointer-events="none"><tspan x="0" y="0.0">Person (Mentor)</tspan></text></g><g id="node-n2" transform="translate(480,110)" style="cursor: move; opacity: 1;"><rect x="-85" y="-26" width="170" height="52" rx="10" fill="#bfdbfe" stroke="#000000" stroke-width="1.5"/><text text-anchor="middle" font-size="12" font-weight="500" fill="#000000" pointer-events="none"><tspan x="0" y="0.0">Person (Learner)</tspan></text></g><g id="node-n3" transform="translate(810,110)" style="cursor: move; opacity: 1;"><rect x="-85" y="-26" width="170" height="52" rx="10" fill="#bfdbfe" stroke="#000000" stroke-width="1.5"/><text text-anchor="middle" font-size="12" font-weight="500" fill="#000000" pointer-events="none"><tspan x="0" y="0.0">Person (Student)</tspan></text></g><g id="node-n4" transform="translate(150,330)" style="cursor: move; opacity: 1;"><rect x="-85" y="-34" width="170" height="68" rx="10" fill="#ddd6fe" stroke="#000000" stroke-width="1.5"/><text text-anchor="middle" font-size="12" font-weight="500" fill="#000000" pointer-events="none"><tspan x="0" y="-8.0">Organization (issuing</tspan><tspan x="0" dy="16">NDC)</tspan></text></g><g id="node-n5" transform="translate(480,330)" style="cursor: move; opacity: 1;"><rect x="-85" y="-26" width="170" height="52" rx="10" fill="#fde68a" stroke="#000000" stroke-width="1.5"/><text text-anchor="middle" font-size="12" font-weight="500" fill="#000000" pointer-events="none"><tspan x="0" y="0.0">Credential {contractId}</tspan></text></g><g id="node-n6" transform="translate(810,330)" style="cursor: move; opacity: 1;"><rect x="-85" y="-23" width="170" height="46" rx="10" fill="#a7f3d0" stroke="#000000" stroke-width="1.5"/><text text-anchor="middle" font-size="12" font-weight="500" fill="#000000" pointer-events="none"><tspan x="0" y="0.0">Skill</tspan></text></g><g id="node-n7" transform="translate(480,540)" style="cursor: move; opacity: 1;"><rect x="-85" y="-26" width="170" height="52" rx="10" fill="#fecaca" stroke="#000000" stroke-width="1.5"/><text text-anchor="middle" font-size="12" font-weight="500" fill="#000000" pointer-events="none"><tspan x="0" y="0.0">GateAttempt {gate}</tspan></text></g></g>
      <g id="triples-layer"/>
      <g id="drag-layer"/>
      <g id="legend-layer"/>
    </svg>